REM DIRINDEX 1\2\6,1\2\4\7,1\2\4\8,1\2\5\9,1\3\12,1\3\10\13,1\3\10\14,1\3\10\15,1\3\11\16,1\3\11\17
REM DIRNAME folder01,folder02,folder03,folder04,folder05,folder06,folder07,folder08,folder09,folder10,folder11,folder12,folder13,folder14,folder15,folder16,folder17
TITLE ""
FILE "073.mp3" MP3
  TRACK 01 AUDIO
    TITLE "6:cjc048_01779"
    INDEX 01 00:00:00
  TRACK 02 AUDIO
    TITLE "9:cjc048_01780"
    INDEX 01 00:02:00
  TRACK 03 AUDIO
    TITLE "0:"
    INDEX 01 00:03:33
  TRACK 04 AUDIO
    TITLE "9:cjc048_01781"
    INDEX 01 00:04:03
  TRACK 05 AUDIO
    TITLE "0:"
    INDEX 01 00:05:40
  TRACK 06 AUDIO
    TITLE "9:cjc048_01782"
    INDEX 01 00:06:10
  TRACK 07 AUDIO
    TITLE "0:"
    INDEX 01 00:07:13
  TRACK 08 AUDIO
    TITLE "9:cjc048_01783"
    INDEX 01 00:07:58
  TRACK 09 AUDIO
    TITLE "0:"
    INDEX 01 00:08:62
  TRACK 10 AUDIO
    TITLE "9:cjc048_01784"
    INDEX 01 00:09:30
  TRACK 11 AUDIO
    TITLE "0:"
    INDEX 01 00:10:39
  TRACK 12 AUDIO
    TITLE "9:cjc048_01785"
    INDEX 01 00:11:09
  TRACK 13 AUDIO
    TITLE "0:"
    INDEX 01 00:12:22
  TRACK 14 AUDIO
    TITLE "9:cjc048_01786"
    INDEX 01 00:12:65
  TRACK 15 AUDIO
    TITLE "0:"
    INDEX 01 00:13:65
  TRACK 16 AUDIO
    TITLE "9:cjc048_01787"
    INDEX 01 00:14:35
  TRACK 17 AUDIO
    TITLE "0:"
    INDEX 01 00:15:40
  TRACK 18 AUDIO
    TITLE "9:cjc048_01788"
    INDEX 01 00:16:10
  TRACK 19 AUDIO
    TITLE "0:"
    INDEX 01 00:17:12
  TRACK 20 AUDIO
    TITLE "9:cjc048_01789"
    INDEX 01 00:17:55
  TRACK 21 AUDIO
    TITLE "0:"
    INDEX 01 00:18:64
  TRACK 22 AUDIO
    TITLE "9:cjc048_01790"
    INDEX 01 00:19:34
  TRACK 23 AUDIO
    TITLE "0:"
    INDEX 01 00:20:30
  TRACK 24 AUDIO
    TITLE "9:cjc048_01791"
    INDEX 01 00:20:73
  TRACK 25 AUDIO
    TITLE "0:"
    INDEX 01 00:22:03
  TRACK 26 AUDIO
    TITLE "9:cjc048_01792"
    INDEX 01 00:22:48
  TRACK 27 AUDIO
    TITLE "0:"
    INDEX 01 00:23:51
  TRACK 28 AUDIO
    TITLE "9:cjc048_01793"
    INDEX 01 00:24:24
  TRACK 29 AUDIO
    TITLE "0:"
    INDEX 01 00:26:11
  TRACK 30 AUDIO
    TITLE "9:cjc048_01794"
    INDEX 01 00:26:56
  TRACK 31 AUDIO
    TITLE "0:"
    INDEX 01 00:27:71
  TRACK 32 AUDIO
    TITLE "9:cjc048_01795"
    INDEX 01 00:28:41
  TRACK 33 AUDIO
    TITLE "0:"
    INDEX 01 00:29:48
  TRACK 34 AUDIO
    TITLE "9:cjc048_01796"
    INDEX 01 00:30:18
  TRACK 35 AUDIO
    TITLE "0:"
    INDEX 01 00:31:27
  TRACK 36 AUDIO
    TITLE "9:cjc048_01797"
    INDEX 01 00:32:00
  TRACK 37 AUDIO
    TITLE "0:"
    INDEX 01 00:33:26
  TRACK 38 AUDIO
    TITLE "9:cjc048_01798"
    INDEX 01 00:33:71
  TRACK 39 AUDIO
    TITLE "0:"
    INDEX 01 00:35:43
  TRACK 40 AUDIO
    TITLE "9:cjc048_01799"
    INDEX 01 00:36:13
  TRACK 41 AUDIO
    TITLE "0:"
    INDEX 01 00:37:54
  TRACK 42 AUDIO
    TITLE "9:cjc048_01800"
    INDEX 01 00:38:24
  TRACK 43 AUDIO
    TITLE "0:"
    INDEX 01 00:39:52
  TRACK 44 AUDIO
    TITLE "9:cjc048_01801"
    INDEX 01 00:40:23
  TRACK 45 AUDIO
    TITLE "0:"
    INDEX 01 00:41:18
  TRACK 46 AUDIO
    TITLE "9:cjc048_01802"
    INDEX 01 00:41:63
  TRACK 47 AUDIO
    TITLE "0:"
    INDEX 01 00:42:70
  TRACK 48 AUDIO
    TITLE "9:cjc048_01803"
    INDEX 01 00:43:40
  TRACK 49 AUDIO
    TITLE "0:"
    INDEX 01 00:44:40
  TRACK 50 AUDIO
    TITLE "9:cjc048_01804"
    INDEX 01 00:45:10
  TRACK 51 AUDIO
    TITLE "0:"
    INDEX 01 00:46:31
  TRACK 52 AUDIO
    TITLE "9:cjc048_01805"
    INDEX 01 00:47:01
  TRACK 53 AUDIO
    TITLE "0:"
    INDEX 01 00:48:14
  TRACK 54 AUDIO
    TITLE "9:cjc048_01806"
    INDEX 01 00:48:63
  TRACK 55 AUDIO
    TITLE "0:"
    INDEX 01 00:50:15
  TRACK 56 AUDIO
    TITLE "9:cjc048_01807"
    INDEX 01 00:50:58
  TRACK 57 AUDIO
    TITLE "0:"
    INDEX 01 00:51:60
  TRACK 58 AUDIO
    TITLE "9:cjc048_01808"
    INDEX 01 00:52:32
  TRACK 59 AUDIO
    TITLE "0:"
    INDEX 01 00:53:33
  TRACK 60 AUDIO
    TITLE "9:cjc048_01809"
    INDEX 01 00:54:03
  TRACK 61 AUDIO
    TITLE "0:"
    INDEX 01 00:55:12
  TRACK 62 AUDIO
    TITLE "9:cjc048_01810"
    INDEX 01 00:55:55
  TRACK 63 AUDIO
    TITLE "0:"
    INDEX 01 00:57:15
  TRACK 64 AUDIO
    TITLE "9:cjc048_01811"
    INDEX 01 00:57:58
  TRACK 65 AUDIO
    TITLE "0:"
    INDEX 01 00:58:71
  TRACK 66 AUDIO
    TITLE "9:cjc048_01812"
    INDEX 01 00:59:45
  TRACK 67 AUDIO
    TITLE "0:"
    INDEX 01 01:00:51
  TRACK 68 AUDIO
    TITLE "9:cjc048_01813"
    INDEX 01 01:01:21
  TRACK 69 AUDIO
    TITLE "0:"
    INDEX 01 01:02:28
  TRACK 70 AUDIO
    TITLE "9:cjc048_01814"
    INDEX 01 01:02:73
  TRACK 71 AUDIO
    TITLE "0:"
    INDEX 01 01:04:11
  TRACK 72 AUDIO
    TITLE "9:cjc048_01815"
    INDEX 01 01:04:58
  TRACK 73 AUDIO
    TITLE "0:"
    INDEX 01 01:05:58
  TRACK 74 AUDIO
    TITLE "9:cjc048_01816"
    INDEX 01 01:06:30
  TRACK 75 AUDIO
    TITLE "0:"
    INDEX 01 01:07:35
  TRACK 76 AUDIO
    TITLE "9:cjc048_01817"
    INDEX 01 01:08:03
  TRACK 77 AUDIO
    TITLE "0:"
    INDEX 01 01:09:14
  TRACK 78 AUDIO
    TITLE "9:cjc048_01818"
    INDEX 01 01:09:57
  TRACK 79 AUDIO
    TITLE "0:"
    INDEX 01 01:11:05
  TRACK 80 AUDIO
    TITLE "9:cjc048_01819"
    INDEX 01 01:11:51
  TRACK 81 AUDIO
    TITLE "0:"
    INDEX 01 01:13:02
  TRACK 82 AUDIO
    TITLE "9:cjc048_01820"
    INDEX 01 01:13:47
  TRACK 83 AUDIO
    TITLE "0:"
    INDEX 01 01:14:63
  TRACK 84 AUDIO
    TITLE "9:cjc048_01821"
    INDEX 01 01:15:35
  TRACK 85 AUDIO
    TITLE "0:"
    INDEX 01 01:16:42
  TRACK 86 AUDIO
    TITLE "9:cjc048_01822"
    INDEX 01 01:17:10
  TRACK 87 AUDIO
    TITLE "0:"
    INDEX 01 01:18:66
  TRACK 88 AUDIO
    TITLE "9:cjc048_01823"
    INDEX 01 01:19:38
  TRACK 89 AUDIO
    TITLE "0:"
    INDEX 01 01:20:34
  TRACK 90 AUDIO
    TITLE "9:cjc048_01824"
    INDEX 01 01:21:04
  TRACK 91 AUDIO
    TITLE "0:"
    INDEX 01 01:22:11
  TRACK 92 AUDIO
    TITLE "9:cjc048_01825"
    INDEX 01 01:22:68
  TRACK 93 AUDIO
    TITLE "0:"
    INDEX 01 01:24:04
  TRACK 94 AUDIO
    TITLE "9:cjc048_01826"
    INDEX 01 01:24:49
  TRACK 95 AUDIO
    TITLE "0:"
    INDEX 01 01:25:62
  TRACK 96 AUDIO
    TITLE "9:cjc048_01827"
    INDEX 01 01:26:30
  TRACK 97 AUDIO
    TITLE "0:"
    INDEX 01 01:27:61
  TRACK 98 AUDIO
    TITLE "9:cjc048_01828"
    INDEX 01 01:28:33
  TRACK 99 AUDIO
    TITLE "0:"
    INDEX 01 01:29:64
